<svg width="71" height="72" viewBox="0 0 71 72" fill="none" xmlns="http://www.w3.org/2000/svg">
<g clip-path="url(#clip0_2699_447)">
<path d="M65.6715 37.7439C65.4546 36.614 64.4664 35.7969 63.3159 35.7963H60.9987L60.8283 34.7751C60.6583 33.7494 59.8502 32.948 58.8231 32.7867C58.5951 32.7507 58.3647 32.7267 58.1379 32.6955C58.5309 30.8609 58.2044 28.9455 57.2259 27.3447C57.7429 26.0036 57.6464 24.5034 56.9619 23.2397C56.2774 21.9759 55.0736 21.0755 53.6679 20.7759C52.7692 15.9662 48.5851 12.4701 43.6923 12.4406C43.5723 12.4406 43.4655 12.4563 43.3515 12.4599C42.5697 11.2321 41.2808 10.4172 39.8364 10.2376C38.3919 10.0579 36.9427 10.5322 35.8839 11.5311C34.5502 10.6641 32.9939 10.2019 31.4031 10.2003C28.84 10.2107 26.4243 11.4004 24.8535 13.4259C23.1094 12.9172 21.2285 13.2295 19.7423 14.2745C18.2561 15.3195 17.3259 16.9837 17.2143 18.7971C15.3823 19.5671 14.1903 21.3602 14.1891 23.3475C14.1929 23.6919 14.2331 24.035 14.3091 24.3711C12.689 26.8134 12.2656 29.8594 13.1583 32.6511C12.8367 32.6954 12.5079 32.7351 12.1983 32.7807C11.1659 32.9364 10.3506 33.7382 10.1775 34.7679L10.0071 35.7927H7.68391C6.53533 35.7934 5.54832 36.6079 5.32951 37.7355L0.0747112 64.7139C-0.130506 65.7704 0.14778 66.8634 0.833288 67.6931C1.5188 68.5229 2.53961 69.0024 3.61591 69.0003H28.6407C29.6343 70.6395 32.6535 71.4003 35.4999 71.4003C38.3163 71.4003 41.3067 70.6575 42.3291 69.0003H67.3839C68.46 69.0023 69.4805 68.523 70.166 67.6935C70.8514 66.864 71.1299 65.7714 70.9251 64.7151L65.6715 37.7439ZM17.8179 25.5195C16.8436 24.9336 16.3786 23.7707 16.6804 22.6746C16.9822 21.5785 17.977 20.8175 19.1139 20.8131C19.9096 20.8107 20.6584 21.1889 21.1287 21.8307C21.3842 22.1749 21.804 22.3567 22.2299 22.3076C22.6558 22.2584 23.0231 21.9858 23.1935 21.5924C23.3639 21.1989 23.3114 20.7445 23.0559 20.4003C22.2411 19.3112 21.0062 18.6145 19.6527 18.4803C20.0105 16.7997 21.4925 15.5966 23.2107 15.5919C23.3571 15.5993 23.503 15.6153 23.6475 15.6399C23.551 15.8859 23.4669 16.1366 23.3955 16.3911C23.2462 17.0263 23.6318 17.6644 24.2636 17.8276C24.8954 17.9908 25.5418 17.6191 25.7187 16.9911C25.8552 16.4636 26.0648 15.9579 26.3415 15.4886C27.406 13.7054 29.3263 12.6095 31.4031 12.6003C32.5334 12.6053 33.6378 12.9388 34.5819 13.5603C34.4021 14.0656 34.3068 14.5971 34.2999 15.1335C34.2999 15.7962 34.8372 16.3335 35.4999 16.3335C36.1627 16.3335 36.6999 15.7962 36.6999 15.1335C36.6999 13.7394 37.83 12.6093 39.2241 12.6093C40.6182 12.6093 41.7483 13.7394 41.7483 15.1335C41.7483 15.7962 42.2856 16.3335 42.9483 16.3335C43.6111 16.3335 44.1483 15.7962 44.1483 15.1335C44.1483 15.0411 44.1255 14.9535 44.1207 14.8611C47.5567 15.0731 50.4461 17.5155 51.2271 20.8682C50.6674 21.0312 50.1414 21.2934 49.6743 21.6423C49.3313 21.8995 49.1516 22.3201 49.2029 22.7458C49.2542 23.1714 49.5287 23.5374 49.9229 23.7058C50.3172 23.8742 50.7713 23.8195 51.1143 23.5623C52.0732 22.8523 53.3979 22.9089 54.2927 23.6981C55.1876 24.4873 55.4093 25.7945 54.8247 26.8347C54.5635 27.2939 54.1665 27.6611 53.6883 27.8859C53.1868 28.1287 52.9184 28.6847 53.0403 29.2284C53.1622 29.7721 53.6423 30.1604 54.1995 30.1659C54.3755 30.1661 54.5493 30.1272 54.7083 30.0518C55.0263 29.8977 55.3269 29.7099 55.6047 29.4915C56.225 31.2549 55.836 33.2163 54.5895 34.6095L54.5607 34.6395C52.9974 36.333 50.5035 36.7907 48.4407 35.7627C48.2387 35.6559 48.0446 35.5348 47.8599 35.4003C48.7438 34.1611 48.8659 32.5334 48.1767 31.1763C47.9838 30.7932 47.6012 30.5422 47.173 30.5177C46.7448 30.4932 46.336 30.6991 46.1008 31.0577C45.8655 31.4163 45.8394 31.8732 46.0323 32.2563C46.4269 33.0494 46.1808 34.0119 45.4539 34.5183C45.0271 34.8024 44.4997 34.8923 44.0028 34.7656C43.506 34.6388 43.0861 34.3074 42.8475 33.8535C42.6557 33.47 42.2738 33.218 41.8458 33.1924C41.4177 33.1668 41.0085 33.3715 40.7724 33.7294C40.5362 34.0873 40.5089 34.544 40.7007 34.9275C41.4045 36.3481 42.8545 37.2453 44.4399 37.2411C44.9561 37.2376 45.4669 37.137 45.9459 36.9447C46.3745 37.3199 46.8467 37.6422 47.3523 37.9047C49.0626 38.7912 51.0513 38.975 52.8951 38.4171C51.7092 40.0363 49.9344 41.1245 47.9535 41.4471C47.3372 41.5474 46.9009 42.1035 46.9501 42.726C46.9992 43.3484 47.5175 43.8292 48.1419 43.8315C48.2058 43.8314 48.2696 43.8266 48.3327 43.8171C49.0634 43.6906 49.7775 43.482 50.4615 43.1954C50.8312 43.849 51.1312 44.5396 51.3567 45.2559C51.398 45.3809 51.4191 45.5118 51.4191 45.6435C51.4188 46.1621 51.109 46.6305 50.6319 46.8339C50.0799 47.0473 49.4533 46.8789 49.0827 46.4174C48.1534 45.3261 46.9364 44.5175 45.5703 44.0835C42.9771 43.2147 41.9763 42.4383 41.5515 41.5935C42.1741 41.5158 42.7894 41.3873 43.3911 41.2095C43.801 41.0834 44.1124 40.7483 44.2082 40.3303C44.304 39.9123 44.1695 39.475 43.8554 39.1831C43.5413 38.8912 43.0954 38.789 42.6855 38.9151C42.0122 39.1216 41.3171 39.2493 40.6143 39.2955C39.2603 39.4013 37.9 39.196 36.6375 38.6955C36.1635 38.5106 35.6244 38.6448 35.2923 39.0303C33.5452 41.0372 30.5549 41.3783 28.4006 39.8164C26.2463 38.2545 25.6408 35.3064 27.0051 33.0219C27.2261 32.6529 27.2335 32.1941 27.0245 31.8183C26.8155 31.4424 26.4219 31.2066 25.9919 31.1997C25.5619 31.1928 25.1609 31.4157 24.9399 31.7847C24.6536 32.2719 24.4233 32.79 24.2535 33.3291C23.3085 33.2793 22.5634 32.5064 22.5483 31.5602V31.5303C22.5477 31.2136 22.4206 30.9103 22.1952 30.6879C21.9698 30.4655 21.6649 30.3423 21.3483 30.3459C20.6827 30.3524 20.147 30.8946 20.1483 31.5602C20.1537 33.6884 21.7585 35.4721 23.8743 35.7015C23.8786 36.1037 23.9151 36.505 23.9835 36.9015C21.3042 37.4812 18.5252 36.5181 16.7792 34.4047C15.0332 32.2913 14.6118 29.3805 15.6867 26.8587C15.9552 27.1303 16.2549 27.3691 16.5795 27.5703C17.1464 27.9023 17.8749 27.7168 18.2139 27.1541C18.553 26.5913 18.3764 25.8606 17.8179 25.5146V25.5195ZM12.5379 35.1591C13.0911 35.0775 13.6623 35.0055 14.2299 34.9311C16.4486 38.4766 20.6921 40.1982 24.7539 39.2007C25.8453 41.2721 27.8396 42.7166 30.148 43.1078C32.4564 43.4991 34.8153 42.7923 36.5283 41.1963C37.3438 41.4395 38.1837 41.5916 39.0327 41.6499C39.6123 43.8483 41.2875 45.1803 44.8071 46.3599C45.7559 46.6573 46.6024 47.2148 47.2503 47.9691C47.9707 48.8257 49.0303 49.3235 50.1495 49.3311C50.639 49.3309 51.1234 49.2321 51.5739 49.0407C52.9342 48.4593 53.8166 47.1227 53.8167 45.6435C53.8178 45.2577 53.7562 44.8743 53.6343 44.5083C53.3645 43.6604 53.009 42.8422 52.5735 42.0663C54.6141 40.5993 56.0356 38.4254 56.5611 35.9679C56.8167 35.6642 57.0478 35.3408 57.2523 35.0007C57.6543 35.0523 58.0563 35.0979 58.4607 35.1651L62.7927 61.2219C54.3249 58.3943 45.1677 58.3943 36.6999 61.2219V46.2003C36.6999 45.5375 36.1627 45.0003 35.4999 45.0003C34.8372 45.0003 34.2999 45.5375 34.2999 46.2003V61.2267C25.8331 58.3965 16.676 58.3931 8.20711 61.2171L12.5379 35.1591ZM2.68111 66.1587C2.45436 65.8848 2.36193 65.5238 2.42911 65.1747L7.68391 38.1963H9.60391L5.83831 60.8271C5.70586 61.6508 6.00917 62.4844 6.63999 63.0304C7.27081 63.5764 8.13929 63.757 8.93551 63.5079C15.3327 61.4353 22.1481 61.0028 28.7559 62.2503L28.3983 66.6003H3.61591C3.25389 66.6005 2.91083 66.4384 2.68111 66.1587ZM35.4999 69.0003C32.6091 69.0003 30.9507 68.1459 30.7071 67.7655L31.1199 62.7854C32.4394 63.114 33.7307 63.547 34.9815 64.0803C35.1433 64.1582 35.3204 64.1992 35.4999 64.2003C35.68 64.2 35.8576 64.159 36.0195 64.0803C37.2696 63.5438 38.5605 63.108 39.8799 62.7771L40.2927 67.7643C40.0491 68.1459 38.3907 69.0003 35.4999 69.0003ZM68.3187 66.1587C68.089 66.4384 67.7459 66.6005 67.3839 66.6003H42.6051L42.2451 62.2419C48.8566 60.997 55.6749 61.4332 62.0739 63.5103C62.8699 63.7562 63.7365 63.573 64.3649 63.0259C64.9933 62.4789 65.2942 61.6458 65.1603 60.8235L61.3983 38.1975H63.3183L68.5743 65.1735C68.6409 65.5236 68.5471 65.8851 68.3187 66.1587Z" fill="black"/>
<path d="M31.523 27.822C31.0318 28.2664 30.9936 29.0249 31.4378 29.5164C32.4558 30.6403 33.8011 31.416 35.2838 31.734C34.6123 32.6802 33.5233 33.2417 32.363 33.24C31.7003 33.24 31.163 33.7772 31.163 34.44C31.163 35.1027 31.7003 35.64 32.363 35.64C34.8472 35.6499 37.0762 34.1156 37.9538 31.7916C40.9377 31.2971 43.3 29.0003 43.8782 26.0316C43.9676 25.6069 43.8207 25.1671 43.4941 24.8814C43.1676 24.5957 42.7122 24.5085 42.3032 24.6534C41.8941 24.7983 41.5952 25.1528 41.5214 25.5804C41.2861 26.818 40.572 27.9129 39.5342 28.6272C37.5377 29.9718 34.8601 29.6666 33.2174 27.9072C32.7729 27.4159 32.0145 27.3778 31.523 27.822Z" fill="black"/>
<path d="M27.3398 26.5203C28.0026 26.5203 28.5398 25.983 28.5398 25.3203C28.5398 24.4928 28.8685 23.6992 29.4537 23.1141C30.0388 22.529 30.8324 22.2003 31.6598 22.2003C32.3226 22.2003 32.8598 21.663 32.8598 21.0003C32.8598 20.3376 32.3226 19.8003 31.6598 19.8003C28.6126 19.8036 26.1431 22.2731 26.1398 25.3203C26.1398 25.6386 26.2663 25.9438 26.4913 26.1688C26.7163 26.3939 27.0216 26.5203 27.3398 26.5203Z" fill="black"/>
<path d="M36.6999 3.0001V1.8001C36.6999 1.13736 36.1626 0.600098 35.4999 0.600098C34.8371 0.600098 34.2999 1.13736 34.2999 1.8001V3.0001C34.2999 3.66284 34.8371 4.2001 35.4999 4.2001C36.1626 4.2001 36.6999 3.66284 36.6999 3.0001Z" fill="black"/>
<path d="M55.192 9.2111L53.992 10.4111C53.68 10.7124 53.5549 11.1586 53.6647 11.5781C53.7746 11.9977 54.1022 12.3253 54.5218 12.4351C54.9413 12.545 55.3875 12.4198 55.6888 12.1079L56.8888 10.9079C57.2007 10.6066 57.3259 10.1604 57.216 9.74089C57.1062 9.32134 56.7786 8.99368 56.359 8.88387C55.9394 8.77405 55.4933 8.89915 55.192 9.2111Z" fill="black"/>
<path d="M16.1595 12.4595C16.6448 12.4594 17.0822 12.167 17.2679 11.7187C17.4536 11.2703 17.351 10.7543 17.0079 10.4111L15.8079 9.2111C15.5066 8.89915 15.0604 8.77405 14.6409 8.88387C14.2213 8.99368 13.8937 9.32134 13.7839 9.74089C13.674 10.1604 13.7991 10.6066 14.1111 10.9079L15.3111 12.1079C15.5361 12.333 15.8413 12.4594 16.1595 12.4595Z" fill="black"/>
<path d="M25.3972 7.41032C25.5549 7.40998 25.711 7.37901 25.8568 7.31912C26.1509 7.19729 26.3846 6.96357 26.5063 6.66942C26.6281 6.37527 26.628 6.04479 26.506 5.75072L25.1272 2.42432C24.9693 2.01917 24.6045 1.73117 24.1738 1.67152C23.743 1.61187 23.3137 1.78992 23.0516 2.1369C22.7895 2.48388 22.7356 2.94551 22.9108 3.34352L24.2884 6.66992C24.4743 7.11823 24.9119 7.41044 25.3972 7.41032Z" fill="black"/>
<path d="M47.4399 1.77505C46.8279 1.52185 46.1265 1.81242 45.8727 2.42425L44.4939 5.75065C44.3716 6.04485 44.3713 6.37563 44.4931 6.67007C44.6148 6.96451 44.8487 7.19842 45.1431 7.32025C45.289 7.38014 45.4451 7.41111 45.6027 7.41145C46.0881 7.41157 46.5257 7.11936 46.7115 6.67105L48.0891 3.34465C48.2115 3.05044 48.2118 2.71966 48.09 2.42523C47.9682 2.13079 47.7344 1.89687 47.4399 1.77505Z" fill="black"/>
<path d="M59.8899 21.6988C60.0477 21.6985 60.2039 21.6671 60.3495 21.6064L63.6747 20.2288C64.0709 20.0648 64.3494 19.7019 64.4055 19.2769C64.4615 18.8518 64.2866 18.4291 63.9465 18.1681C63.6064 17.907 63.1529 17.8472 62.7567 18.0112L59.4303 19.3888C58.8995 19.6068 58.5974 20.1701 58.7093 20.7329C58.8213 21.2958 59.3161 21.7005 59.8899 21.6988Z" fill="black"/>
<path d="M10.6503 21.6062C11.2627 21.86 11.9649 21.5694 12.2187 20.957C12.4725 20.3446 12.1819 19.6424 11.5695 19.3886L8.2431 18.011C7.63073 17.7575 6.9288 18.0484 6.6753 18.6608C6.4218 19.2732 6.71273 19.9751 7.3251 20.2286L10.6503 21.6062Z" fill="black"/>
</g>
<defs>
<clipPath id="clip0_2699_447">
<rect width="70.9823" height="70.8" fill="white" transform="translate(0.00863647 0.600098)"/>
</clipPath>
</defs>
</svg>
