<svg width="72" height="72" viewBox="0 0 72 72" fill="none" xmlns="http://www.w3.org/2000/svg">
<rect width="72" height="72" fill="#EDEDED"/>
<g id="school-affordable" clip-path="url(#clip0_2415_26437)">
<rect width="1440" height="7310" transform="translate(-779 -1463)" fill="white"/>
<g id="1/4 Layout 3">
<rect width="1440" height="768" transform="translate(-779 -351)" fill="#26335D"/>
<g id="container" clip-path="url(#clip1_2415_26437)">
<g id="row">
<g id="col-md-3">
<g id="card">
<rect width="230" height="288" transform="translate(-40 -35)" fill="#8D5CF6"/>
<g id="icon cool-icon-l25" clip-path="url(#clip2_2415_26437)">
<g id="016-knowledge" clip-path="url(#clip3_2415_26437)">
<g id="Frame" clip-path="url(#clip4_2415_26437)">
<path id="Vector" d="M71.9713 57.9212V51.5857H65.2135V47.362H62.9608V43.8423H65.2135V37.5068H48.3691V39.6187H63.1016V41.7305H19.4069V43.8423H60.8489V47.362H14.8815C13.911 47.362 13.1216 46.5726 13.1216 45.6022C13.1216 44.6317 13.911 43.8423 14.8815 43.8423H17.295V41.7305H14.8815C12.7467 41.7305 11.0098 43.4673 11.0098 45.6022C11.0098 47.7371 12.7467 49.4739 14.8815 49.4739H63.1015V51.5857H26.7077V53.6975H69.8593V55.8093H10.2355C6.93611 55.8093 4.25198 58.4935 4.25198 61.7928C4.25198 65.0922 6.93611 67.7763 10.2355 67.7763H59.9739V65.6645H10.2356C8.10071 65.6645 6.36395 63.9278 6.36395 61.7928C6.36395 59.6579 8.10071 57.9212 10.2356 57.9212H67.6069V61.4409H20.7948V63.5527H67.6069V65.6645H62.0858V67.7763H69.8595V69.8882H10.2356C5.77179 69.8882 2.1403 66.2567 2.1403 61.7928C2.1403 57.329 5.77179 53.6975 10.2356 53.6975H24.596V51.5857H14.8816C11.5823 51.5857 8.89814 48.9015 8.89814 45.6022C8.89814 42.3028 11.5823 39.6187 14.8816 39.6187H46.2573V37.5068H14.8816C10.4178 37.5068 6.78631 41.1383 6.78631 45.6022C6.78631 47.9874 7.82378 50.1344 9.47058 51.6174C4.19862 52.0103 0.0284729 56.4222 0.0284729 61.7928C0.0284729 67.4211 4.60733 72 10.2356 72H71.9713V65.6645H69.7187V57.9212H71.9713Z" fill="white"/>
<path id="Vector_2" d="M16.5711 61.4409H18.6829V63.5527H16.5711V61.4409Z" fill="white"/>
<path id="Vector_3" d="M19.4572 31.3844L19.9274 31.6979C20.1107 31.8201 24.5486 34.6911 35.9998 34.6911C47.451 34.6911 51.8889 31.8201 52.0722 31.6979L52.5424 31.3844V13.6065L58.8779 11.4947V21.4637C57.2549 21.9247 56.0621 23.4192 56.0621 25.1879V30.4674H63.8055V25.1879C63.8055 23.4192 62.6127 21.9247 60.9897 21.4637V10.7907L64.6808 9.56037L53.5914 5.86383L52.9235 7.86725L58.0026 9.56023L35.9998 16.8946L13.997 9.56037L35.9998 2.22615L50.9201 7.19963L51.588 5.19622L35.9998 0L7.31882 9.56037L19.4572 13.6065V31.3844ZM61.6937 25.1879V28.3556H58.174V25.1879C58.174 24.2174 58.9634 23.428 59.9338 23.428C60.9043 23.428 61.6937 24.2174 61.6937 25.1879ZM21.569 14.3104L35.9998 19.1207L50.4306 14.3104V22.5833H47.826V24.6951H50.4306V26.8069H45.855V28.9188H50.4306V30.1918C49.0697 30.8545 44.6914 32.5793 35.9998 32.5793C27.3016 32.5793 22.9231 30.8518 21.569 30.1923V14.3104Z" fill="white"/>
<path id="Vector_4" d="M12.3475 61.4409H14.4593V63.5527H12.3475V61.4409Z" fill="white"/>
<path id="Vector_5" d="M41.6314 26.8071H43.7432V28.919H41.6314V26.8071Z" fill="white"/>
</g>
</g>
</g>
</g>
</g>
</g>
</g>
</g>
</g>
<defs>
<clipPath id="clip0_2415_26437">
<rect width="1440" height="7310" fill="white" transform="translate(-779 -1463)"/>
</clipPath>
<clipPath id="clip1_2415_26437">
<rect width="1050" height="764" fill="white" transform="translate(-584 -351)"/>
</clipPath>
<clipPath id="clip2_2415_26437">
<rect width="72" height="72" fill="white"/>
</clipPath>
<clipPath id="clip3_2415_26437">
<rect width="72" height="72" fill="white"/>
</clipPath>
<clipPath id="clip4_2415_26437">
<rect width="71.9428" height="72" fill="white" transform="translate(0.0284729)"/>
</clipPath>
</defs>
</svg>
